<svg xmlns="http://www.w3.org/2000/svg" width="2048" height="1005" style="cursor: move;"><g transform="translate(65.7743818156323,88.1656607315922) scale(0.8600545067752504)"><path class="link" marker-end="url(#arrow)" d="M869,432.5, 1044,492.5" style="stroke-width: 0.76; stroke-opacity: 1; stroke: rgb(80, 80, 80);"></path><path class="link" marker-end="url(#arrow)" d="M869,432.5, 1044,532.5" style="stroke-width: 0.76; stroke-opacity: 1; stroke: rgb(80, 80, 80);"></path><path class="link" marker-end="url(#arrow)" d="M869,472.5, 1044,492.5" style="stroke-width: 0.76; stroke-opacity: 1; stroke: rgb(80, 80, 80);"></path><path class="link" marker-end="url(#arrow)" d="M869,472.5, 1044,532.5" style="stroke-width: 0.76; stroke-opacity: 1; stroke: rgb(80, 80, 80);"></path><path class="link" marker-end="url(#arrow)" d="M869,512.5, 1044,492.5" style="stroke-width: 0.76; stroke-opacity: 1; stroke: rgb(80, 80, 80);"></path><path class="link" marker-end="url(#arrow)" d="M869,512.5, 1044,532.5" style="stroke-width: 0.76; stroke-opacity: 1; stroke: rgb(80, 80, 80);"></path><path class="link" marker-end="url(#arrow)" d="M869,552.5, 1044,492.5" style="stroke-width: 0.76; stroke-opacity: 1; stroke: rgb(80, 80, 80);"></path><path class="link" marker-end="url(#arrow)" d="M869,552.5, 1044,532.5" style="stroke-width: 0.76; stroke-opacity: 1; stroke: rgb(80, 80, 80);"></path><path class="link" marker-end="url(#arrow)" d="M1044,452.5, 1219,492.5" style="stroke-width: 0.76; stroke-opacity: 1; stroke: rgb(80, 80, 80);"></path><path class="link" marker-end="url(#arrow)" d="M1044,492.5, 1219,492.5" style="stroke-width: 0.76; stroke-opacity: 1; stroke: rgb(80, 80, 80);"></path><path class="link" marker-end="url(#arrow)" d="M1044,532.5, 1219,492.5" style="stroke-width: 0.76; stroke-opacity: 1; stroke: rgb(80, 80, 80);"></path><path class="link" marker-end="url(#arrow)" d="M869,432.5, 1044,452.5" style="stroke-width: 0.76; stroke-opacity: 1; stroke: rgb(80, 80, 80);"></path><path class="link" marker-end="url(#arrow)" d="M869,472.5, 1044,452.5" style="stroke-width: 0.76; stroke-opacity: 1; stroke: rgb(80, 80, 80);"></path><path class="link" marker-end="url(#arrow)" d="M869,512.5, 1044,452.5" style="stroke-width: 0.76; stroke-opacity: 1; stroke: rgb(80, 80, 80);"></path><path class="link" marker-end="url(#arrow)" d="M869,552.5, 1044,452.5" style="stroke-width: 0.76; stroke-opacity: 1; stroke: rgb(80, 80, 80);"></path><circle r="10" class="node" id="0_0" cx="869" cy="432.5" style="fill: rgb(255, 255, 255); stroke: rgb(0, 0, 0);"></circle><circle r="10" class="node" id="0_1" cx="869" cy="472.5" style="fill: rgb(255, 255, 255); stroke: rgb(0, 0, 0);"></circle><circle r="10" class="node" id="0_2" cx="869" cy="512.5" style="fill: rgb(255, 255, 255); stroke: rgb(0, 0, 0);"></circle><circle r="10" class="node" id="0_3" cx="869" cy="552.5" style="fill: rgb(255, 255, 255); stroke: rgb(0, 0, 0);"></circle><circle r="10" class="node" id="1_0" cx="1044" cy="452.5" style="fill: rgb(255, 255, 255); stroke: rgb(0, 0, 0);"></circle><circle r="10" class="node" id="1_1" cx="1044" cy="492.5" style="fill: rgb(255, 255, 255); stroke: rgb(0, 0, 0);"></circle><circle r="10" class="node" id="1_2" cx="1044" cy="532.5" style="fill: rgb(255, 255, 255); stroke: rgb(0, 0, 0);"></circle><circle r="10" class="node" id="2_0" cx="1219" cy="492.5" style="fill: rgb(255, 255, 255); stroke: rgb(0, 0, 0);"></circle><text class="text" dy=".35em" x="834" y="592.5" style="font-size: 12px;">Input Layer ∈ ℝ⁴</text><text class="text" dy=".35em" x="1009" y="592.5" style="font-size: 12px;">Hidden Layer ∈ ℝ³</text><text class="text" dy=".35em" x="1184" y="592.5" style="font-size: 12px;">Output Layer ∈ ℝ¹</text></g><defs><marker id="arrow" viewBox="0 -5 10 10" markerWidth="7" markerHeight="7" orient="auto" refX="40"><path d="M0,-5L10,0L0,5" style="stroke: rgb(80, 80, 80); fill: rgb(80, 80, 80);"></path></marker></defs></svg>